<svg width="133" height="150" viewBox="0 0 133 150" fill="none" xmlns="http://www.w3.org/2000/svg">
<path d="M132.955 124.773H0V150H132.955V124.773Z" fill="#2B3A42"/>
<path d="M128.765 89.4907H96.0384C87.0823 89.4907 81.5021 83.3979 80.6087 75.7966C80.1107 71.5858 81.3263 67.3823 83.5745 63.7867C88.8911 55.3139 98.0522 51.6524 107.631 50.4587C110.165 50.1438 112.801 50.1951 115.261 50.239C117.766 50.2903 120.073 50.3342 122.138 50.0559C122.394 50.0193 122.511 49.9827 122.563 49.9607C122.577 49.9388 122.599 49.8948 122.636 49.8216C122.709 49.6678 126.18 38.2145 127.498 32.129C128.773 26.2266 130.069 20.1484 132.046 14.7733L132.017 14.5463C128.084 14.5463 124.144 14.5829 120.227 14.5609C113.951 14.517 107.624 15.8571 102.358 19.4015C97.9717 22.3527 94.6104 26.5635 92.018 31.1331C87.9537 38.3243 83.0692 55.453 83.0692 55.453C83.0326 55.5995 82.9008 55.702 82.7543 55.7094L78.6827 56.0169L79.6127 0.361468C79.6274 0.0758679 79.3125 -0.0925631 79.0708 0.0538987C69.3604 6.15403 59.8111 10.3868 48.6654 13.5577C48.5116 13.6016 48.4091 13.7407 48.4091 13.8945V75.8845C48.4091 88.7804 51.6532 98.5128 58.0609 104.811C64.3661 111.013 73.9959 114.162 86.6868 114.162H132.31C132.507 114.162 132.661 114.001 132.661 113.811V89.8496C132.661 89.6518 132.507 89.4981 132.31 89.4981C131.35 89.4981 128.758 89.4981 128.758 89.4981L128.765 89.4907Z" fill="#2B3A42"/>
<path d="M43.4772 89.6741C41.6317 97.3048 38.5927 103.002 34.0304 106.964C28.5527 111.709 20.6365 114.17 9.24906 114.17H0V89.6741H43.4772Z" fill="#2B3A42"/>
</svg>
