<svg width="989" height="73" viewBox="0 0 989 73" fill="none" xmlns="http://www.w3.org/2000/svg">
<path d="M-9.73642e-05 71.4004V1.40039H25.8999C30.0332 1.40039 33.7332 2.20039 36.9999 3.80038C40.3332 5.33372 42.9666 7.56705 44.8999 10.5004C46.8332 13.4337 47.7999 17.0004 47.7999 21.2004V22.4004C47.7999 26.6004 46.7999 30.2004 44.7999 33.2004C42.8666 36.1337 40.2332 38.3671 36.8999 39.9004C33.6332 41.4337 29.9666 42.2004 25.8999 42.2004H6.3999V71.4004H-9.73642e-05ZM6.3999 36.4004H25.1999C30.1999 36.4004 34.1332 35.1671 36.9999 32.7004C39.9332 30.2337 41.3999 26.7671 41.3999 22.3004V21.3004C41.3999 16.7671 39.9666 13.3004 37.0999 10.9004C34.2999 8.43372 30.3332 7.20039 25.1999 7.20039H6.3999V36.4004ZM59.9608 71.4004V1.40039H66.3608V65.6004H103.161V71.4004H59.9608ZM108.848 71.4004L131.748 1.40039H143.148L166.048 71.4004H159.348L153.348 52.8004H121.548L115.548 71.4004H108.848ZM123.348 47.0004H151.548L138.048 5.20038H136.848L123.348 47.0004ZM177.441 71.4004V1.40039H190.141L218.741 67.6004H219.941V1.40039H226.341V71.4004H213.641L185.041 5.10039H183.841V71.4004H177.441ZM261.155 71.4004V7.20039H237.755V1.40039H290.955V7.20039H267.555V71.4004H261.155ZM342.716 71.4004V43.7004L317.316 1.40039H324.916L345.316 36.4004H346.516L366.916 1.40039H374.516L349.116 43.7004V71.4004H342.716ZM406.633 72.8004C398.433 72.8004 391.9 70.4004 387.033 65.6004C382.167 60.7337 379.733 53.6337 379.733 44.3004V28.5004C379.733 19.1671 382.167 12.1004 387.033 7.30039C391.9 2.43372 398.433 0.000386 406.633 0.000386C414.833 0.000386 421.367 2.43372 426.234 7.30039C431.1 12.1004 433.534 19.1671 433.534 28.5004V44.3004C433.534 53.6337 431.1 60.7337 426.234 65.6004C421.367 70.4004 414.833 72.8004 406.633 72.8004ZM406.633 67.0004C413.167 67.0004 418.2 65.0337 421.733 61.1004C425.334 57.1671 427.134 51.6337 427.134 44.5004V28.3004C427.134 21.1671 425.334 15.6337 421.733 11.7004C418.2 7.76706 413.167 5.80039 406.633 5.80039C400.167 5.80039 395.133 7.76706 391.533 11.7004C387.933 15.6337 386.133 21.1671 386.133 28.3004V44.5004C386.133 51.6337 387.933 57.1671 391.533 61.1004C395.133 65.0337 400.167 67.0004 406.633 67.0004ZM473.135 72.8004C468.135 72.8004 463.735 71.9337 459.935 70.2004C456.202 68.4004 453.268 65.7004 451.135 62.1004C449.002 58.5004 447.935 53.9671 447.935 48.5004V1.40039H454.335V48.5004C454.335 54.7671 455.968 59.4337 459.235 62.5004C462.568 65.5004 467.202 67.0004 473.135 67.0004C479.068 67.0004 483.668 65.5004 486.935 62.5004C490.268 59.4337 491.935 54.7671 491.935 48.5004V1.40039H498.335V48.5004C498.335 53.9671 497.268 58.5004 495.135 62.1004C493.068 65.7004 490.135 68.4004 486.335 70.2004C482.535 71.9337 478.135 72.8004 473.135 72.8004ZM514.941 71.4004V1.40039H542.341C546.675 1.40039 550.475 2.13372 553.741 3.60039C557.075 5.06705 559.675 7.20039 561.541 10.0004C563.475 12.7337 564.441 16.0671 564.441 20.0004V21.0004C564.441 25.7337 563.308 29.4671 561.041 32.2004C558.775 34.8671 556.108 36.6337 553.041 37.5004V38.7004C555.375 38.7671 557.341 39.5004 558.941 40.9004C560.541 42.3004 561.341 44.5337 561.341 47.6004V71.4004H554.941V48.3004C554.941 46.1671 554.341 44.5337 553.141 43.4004C552.008 42.2671 550.275 41.7004 547.941 41.7004H521.341V71.4004H514.941ZM521.341 35.9004H541.741C546.941 35.9004 550.941 34.7004 553.741 32.3004C556.608 29.8337 558.041 26.3337 558.041 21.8004V21.3004C558.041 16.7671 556.641 13.3004 553.841 10.9004C551.108 8.43372 547.075 7.20039 541.741 7.20039H521.341V35.9004ZM610.727 71.4004L598.427 1.40039H604.927L616.127 67.6004H617.327L631.827 1.40039H643.627L658.127 67.6004H659.327L670.527 1.40039H677.027L664.727 71.4004H652.827L638.327 5.20038H637.127L622.627 71.4004H610.727ZM689.648 71.4004V1.40039H731.948V7.20039H696.048V33.4004H729.148V39.2004H696.048V65.6004H732.348V71.4004H689.648ZM740.587 71.4004L763.487 1.40039H774.887L797.787 71.4004H791.087L785.087 52.8004H753.287L747.287 71.4004H740.587ZM755.087 47.0004H783.287L769.787 5.20038H768.587L755.087 47.0004ZM809.18 71.4004V1.40039H815.58V65.6004H852.38V71.4004H809.18ZM872.873 71.4004V7.20039H849.473V1.40039H902.673V7.20039H879.273V71.4004H872.873ZM914.062 71.4004V1.40039H920.462V33.4004H956.062V1.40039H962.462V71.4004H956.062V39.2004H920.462V71.4004H914.062ZM982.787 72.8004C981.121 72.8004 979.754 72.2671 978.687 71.2004C977.621 70.1337 977.087 68.7671 977.087 67.1004C977.087 65.4337 977.621 64.0671 978.687 63.0004C979.754 61.9337 981.121 61.4004 982.787 61.4004C984.454 61.4004 985.821 61.9337 986.887 63.0004C987.954 64.0671 988.487 65.4337 988.487 67.1004C988.487 68.7671 987.954 70.1337 986.887 71.2004C985.821 72.2671 984.454 72.8004 982.787 72.8004Z" fill="white"/>
</svg>
