<svg width="2109" height="191" viewBox="0 0 2109 191" fill="none" xmlns="http://www.w3.org/2000/svg">
<path d="M135 144L100.2 35.8L97.3999 26.4L94.5999 35.8L59.7999 144H43.7999L-9.73642e-05 8H14.5999L49.3999 120.4L52.1999 130L54.7999 120.4L90.5999 8H105.2L140.6 120.4L143.4 130L145.8 120.4L180.6 8H194.6L150.8 144H135ZM212.519 144V-5.72205e-06H225.519V56C232.719 43 244.919 36 259.919 36C282.319 36 295.119 49.4 295.119 73.2V144H282.319V76C282.319 58.8 274.319 47 256.519 47C236.919 47 225.519 64.8 225.519 80.8V144H212.519ZM408.195 109.6C402.395 134.4 385.195 146.2 361.995 146.2C331.995 146.2 314.195 125.6 314.195 91.2C314.195 55.4 332.195 36 360.995 36C390.195 36 407.595 56.2 407.595 89.6V93.2H327.395C327.995 119.8 340.595 135 361.995 135C378.595 135 390.595 126.4 394.795 109.6H408.195ZM360.995 47.2C341.395 47.2 329.795 59.8 327.795 83.2H394.195C392.195 60.4 380.395 47.2 360.995 47.2ZM427.472 144V38.2H440.472V57.6C447.472 43.2 459.272 36 473.072 36C477.072 36 480.672 36.8 482.672 38.2V50C479.872 49 476.072 48.4 472.272 48.4C450.672 48.4 440.472 64.4 440.472 83.2V144H427.472ZM580.766 109.6C574.966 134.4 557.766 146.2 534.566 146.2C504.566 146.2 486.766 125.6 486.766 91.2C486.766 55.4 504.766 36 533.566 36C562.766 36 580.166 56.2 580.166 89.6V93.2H499.966C500.566 119.8 513.166 135 534.566 135C551.166 135 563.166 126.4 567.366 109.6H580.766ZM533.566 47.2C513.966 47.2 502.366 59.8 500.366 83.2H566.766C564.766 60.4 552.966 47.2 533.566 47.2ZM635.253 22.8V-5.72205e-06H648.253V22.8H635.253ZM635.253 144V38.2H648.253V144H635.253ZM673.003 144V38.2H686.003V56C693.203 43 705.403 36 720.403 36C742.803 36 755.603 49.4 755.603 73.2V144H742.803V76C742.803 58.8 734.803 47 717.003 47C697.403 47 686.003 64.8 686.003 80.8V144H673.003ZM804.159 144L763.959 38.2H777.959L809.959 124.6L812.559 132.8L815.159 124.6L847.159 38.2H860.159L819.959 144H804.159ZM959.75 109.6C953.95 134.4 936.75 146.2 913.55 146.2C883.55 146.2 865.75 125.6 865.75 91.2C865.75 55.4 883.75 36 912.55 36C941.75 36 959.15 56.2 959.15 89.6V93.2H878.95C879.55 119.8 892.15 135 913.55 135C930.15 135 942.15 126.4 946.35 109.6H959.75ZM912.55 47.2C892.95 47.2 881.35 59.8 879.35 83.2H945.75C943.75 60.4 931.95 47.2 912.55 47.2ZM987.026 65C987.026 98 1056.83 70.4 1056.83 114.4C1056.83 134.2 1039.83 146.2 1016.23 146.2C991.626 146.2 974.826 134.2 970.826 109.6H983.826C986.426 126.6 998.426 135.8 1016.63 135.8C1034.43 135.8 1043.83 127.4 1043.83 115.4C1043.83 82.4 974.626 109.6 974.626 66C974.626 50 986.626 36 1011.63 36C1033.63 36 1049.83 46.8 1053.03 72.6H1040.03C1037.43 54 1027.03 46.6 1010.83 46.6C995.626 46.6 987.026 54.4 987.026 65ZM1076 115V48.6H1060V38.2H1076V13.8H1089V38.2H1112.6V48.6H1089V115C1089 129 1093 135.2 1109.2 135.2H1112.4V144.6C1110.8 145.2 1107.2 145.6 1103.6 145.6C1084.4 145.6 1076 136.2 1076 115ZM1125.03 144V38.2H1138.03V55.2C1144.63 42.6 1155.83 36 1169.63 36C1185.03 36 1195.43 43.4 1199.83 57C1206.43 43.4 1218.23 36 1232.83 36C1253.83 36 1266.03 49.4 1266.03 73.2V144H1253.03V76C1253.03 58.8 1246.03 47 1230.03 47C1212.43 47 1202.03 64.8 1202.03 80.8V144H1189.03V76C1189.03 58.8 1182.03 47 1166.03 47C1148.43 47 1138.03 64.8 1138.03 80.8V144H1125.03ZM1379.11 109.6C1373.31 134.4 1356.11 146.2 1332.91 146.2C1302.91 146.2 1285.11 125.6 1285.11 91.2C1285.11 55.4 1303.11 36 1331.91 36C1361.11 36 1378.51 56.2 1378.51 89.6V93.2H1298.31C1298.91 119.8 1311.51 135 1332.91 135C1349.51 135 1361.51 126.4 1365.71 109.6H1379.11ZM1331.91 47.2C1312.31 47.2 1300.71 59.8 1298.71 83.2H1365.11C1363.11 60.4 1351.31 47.2 1331.91 47.2ZM1398.39 144V38.2H1411.39V56C1418.59 43 1430.79 36 1445.79 36C1468.19 36 1480.99 49.4 1480.99 73.2V144H1468.19V76C1468.19 58.8 1460.19 47 1442.39 47C1422.79 47 1411.39 64.8 1411.39 80.8V144H1398.39ZM1507.86 115V48.6H1491.86V38.2H1507.86V13.8H1520.86V38.2H1544.46V48.6H1520.86V115C1520.86 129 1524.86 135.2 1541.06 135.2H1544.26V144.6C1542.66 145.2 1539.06 145.6 1535.46 145.6C1516.26 145.6 1507.86 136.2 1507.86 115ZM1564.89 65C1564.89 98 1634.69 70.4 1634.69 114.4C1634.69 134.2 1617.69 146.2 1594.09 146.2C1569.49 146.2 1552.69 134.2 1548.69 109.6H1561.69C1564.29 126.6 1576.29 135.8 1594.49 135.8C1612.29 135.8 1621.69 127.4 1621.69 115.4C1621.69 82.4 1552.49 109.6 1552.49 66C1552.49 50 1564.49 36 1589.49 36C1611.49 36 1627.69 46.8 1630.89 72.6H1617.89C1615.29 54 1604.89 46.6 1588.69 46.6C1573.49 46.6 1564.89 54.4 1564.89 65ZM1723.68 145C1697.08 145 1681.28 124.6 1681.28 90.6C1681.28 55.2 1697.48 36 1723.68 36C1739.28 36 1750.48 42.2 1757.28 54V38.2H1770.28V147.8C1770.28 177.4 1752.28 190.4 1728.68 190.4C1704.48 190.4 1687.88 178.4 1684.08 155H1697.08C1699.48 171 1711.48 179.6 1728.68 179.6C1746.28 179.6 1757.28 169.8 1757.28 148.2V126.4C1750.08 138.6 1738.48 145 1723.68 145ZM1725.88 133.8C1746.28 133.8 1757.28 118.4 1757.28 90.4C1757.28 63.2 1745.88 47.2 1725.88 47.2C1705.68 47.2 1694.48 62.6 1694.48 90.6C1694.48 118 1705.88 133.8 1725.88 133.8ZM1795.34 144V38.2H1808.34V57.6C1815.34 43.2 1827.14 36 1840.94 36C1844.94 36 1848.54 36.8 1850.54 38.2V50C1847.74 49 1843.94 48.4 1840.14 48.4C1818.54 48.4 1808.34 64.4 1808.34 83.2V144H1795.34ZM1901.83 146.2C1872.03 146.2 1854.63 125.6 1854.63 91.2C1854.63 55.4 1872.63 36 1901.83 36C1931.43 36 1948.83 56.8 1948.83 91.2C1948.83 126.8 1930.83 146.2 1901.83 146.2ZM1901.83 135C1923.63 135 1935.63 119.4 1935.63 91.2C1935.63 63.4 1923.23 47.2 1901.83 47.2C1879.83 47.2 1867.83 62.8 1867.83 91.2C1867.83 119 1880.23 135 1901.83 135ZM2059.14 144L2033.54 60.2L2031.14 49.4L2028.54 60.2L2002.94 144H1987.14L1954.14 38.2H1968.14L1993.14 124.6L1995.74 134.4L1998.14 124.6L2024.74 38.2H2038.74L2065.54 124.6L2067.74 133.8L2069.94 124.6L2094.94 38.2H2108.34L2075.34 144H2059.14Z" fill="white"/>
</svg>
